<svg xmlns="http://www.w3.org/2000/svg" xmlns:xlink="http://www.w3.org/1999/xlink" contentStyleType="text/css" data-diagram-type="CLASS" height="837px" preserveAspectRatio="none" style="width:1883px;height:837px;background:#FFFFFF;" version="1.1" viewBox="0 0 1883 837" width="1883px" zoomAndPan="magnify"><title>Gym Webservice Domain Diagram</title><defs/><g><g class="title" data-source-line="1"><text fill="#000000" font-family="sans-serif" font-size="14" font-weight="bold" lengthAdjust="spacing" textLength="268.1055" x="800.6973" y="22.9951">Gym Webservice Domain Diagram</text></g><!--cluster Member Management--><g class="cluster" data-entity="Member Management" data-source-line="7" data-uid="ent0002" id="cluster_Member Management"><rect fill="none" height="437.5" rx="2.5" ry="2.5" style="stroke:#000000;stroke-width:1.5;" width="294" x="1583.5" y="217.2969"/><text fill="#000000" font-family="sans-serif" font-size="14" font-weight="bold" lengthAdjust="spacing" textLength="172.3613" x="1644.3193" y="232.292">Member Management</text></g><!--cluster Trainer Management--><g class="cluster" data-entity="Trainer Management" data-source-line="29" data-uid="ent0006" id="cluster_Trainer Management"><rect fill="none" height="343" rx="2.5" ry="2.5" style="stroke:#000000;stroke-width:1.5;" width="222" x="1337.5" y="488.2969"/><text fill="#000000" font-family="sans-serif" font-size="14" font-weight="bold" lengthAdjust="spacing" textLength="164.9922" x="1366.0039" y="503.292">Trainer Management</text></g><!--cluster Schedule Management--><g class="cluster" data-entity="Schedule Management" data-source-line="48" data-uid="ent0010" id="cluster_Schedule Management"><rect fill="none" height="429.5" rx="2.5" ry="2.5" style="stroke:#000000;stroke-width:1.5;" width="441" x="624.5" y="217.2969"/><text fill="#000000" font-family="sans-serif" font-size="14" font-weight="bold" lengthAdjust="spacing" textLength="180.0518" x="754.9741" y="232.292">Schedule Management</text></g><!--cluster Enrollment Orchestration--><g class="cluster" data-entity="Enrollment Orchestration" data-source-line="76" data-uid="ent0016" id="cluster_Enrollment Orchestration"><rect fill="none" height="388.5" rx="2.5" ry="2.5" style="stroke:#000000;stroke-width:1.5;" width="282" x="318.5" y="44.2969"/><text fill="#000000" font-family="sans-serif" font-size="14" font-weight="bold" lengthAdjust="spacing" textLength="200.2861" x="359.3569" y="59.292">Enrollment Orchestration</text></g><!--class Member--><g class="entity" data-entity="Member" data-source-line="8" data-uid="ent0003" id="entity_Member"><rect fill="#F1F1F1" height="172.6719" rx="2.5" ry="2.5" style="stroke:#181818;stroke-width:0.5;" width="260.9102" x="1600" y="252.2969"/><text fill="#000000" font-family="sans-serif" font-size="14" lengthAdjust="spacing" textLength="57.5859" x="1701.6621" y="270.292">Member</text><line style="stroke:#181818;stroke-width:0.5;" x1="1601" x2="1859.9102" y1="278.5938" y2="278.5938"/><ellipse cx="1611" cy="292.2422" fill="none" rx="3" ry="3" style="stroke:#038048;stroke-width:1;"/><text fill="#000000" font-family="sans-serif" font-size="14" lengthAdjust="spacing" textLength="116.7305" x="1620" y="295.5889">memberId: UUID</text><ellipse cx="1611" cy="308.5391" fill="none" rx="3" ry="3" style="stroke:#038048;stroke-width:1;"/><text fill="#000000" font-family="sans-serif" font-size="14" lengthAdjust="spacing" textLength="113.832" x="1620" y="311.8857">fullName: String</text><ellipse cx="1611" cy="324.8359" fill="none" rx="3" ry="3" style="stroke:#038048;stroke-width:1;"/><text fill="#000000" font-family="sans-serif" font-size="14" lengthAdjust="spacing" textLength="89.5576" x="1620" y="328.1826">email: String</text><ellipse cx="1611" cy="341.1328" fill="none" rx="3" ry="3" style="stroke:#038048;stroke-width:1;"/><text fill="#000000" font-family="sans-serif" font-size="14" lengthAdjust="spacing" textLength="94.7598" x="1620" y="344.4795">phone: String</text><ellipse cx="1611" cy="357.4297" fill="none" rx="3" ry="3" style="stroke:#038048;stroke-width:1;"/><text fill="#000000" font-family="sans-serif" font-size="14" lengthAdjust="spacing" textLength="160.2891" x="1620" y="360.7764">dateOfBirth: LocalDate</text><ellipse cx="1611" cy="373.7266" fill="none" rx="3" ry="3" style="stroke:#038048;stroke-width:1;"/><text fill="#000000" font-family="sans-serif" font-size="14" lengthAdjust="spacing" textLength="183.6475" x="1620" y="377.0732">membershipStatus: String</text><ellipse cx="1611" cy="390.0234" fill="none" rx="3" ry="3" style="stroke:#038048;stroke-width:1;"/><text fill="#000000" font-family="sans-serif" font-size="14" lengthAdjust="spacing" textLength="234.9102" x="1620" y="393.3701">membershipStartDate: LocalDate</text><ellipse cx="1611" cy="406.3203" fill="none" rx="3" ry="3" style="stroke:#038048;stroke-width:1;"/><text fill="#000000" font-family="sans-serif" font-size="14" lengthAdjust="spacing" textLength="227.3154" x="1620" y="409.667">membershipEndDate: LocalDate</text><line style="stroke:#181818;stroke-width:0.5;" x1="1601" x2="1859.9102" y1="416.9688" y2="416.9688"/></g><!--class MembershipPlan--><g class="entity" data-entity="MembershipPlan" data-source-line="19" data-uid="ent0004" id="entity_MembershipPlan"><rect fill="#F1F1F1" height="107.4844" rx="2.5" ry="2.5" style="stroke:#181818;stroke-width:0.5;" width="208.6152" x="1626" y="531.7969"/><text fill="#000000" font-family="sans-serif" font-size="14" lengthAdjust="spacing" textLength="116.3135" x="1672.1509" y="549.792">MembershipPlan</text><line style="stroke:#181818;stroke-width:0.5;" x1="1627" x2="1833.6152" y1="558.0938" y2="558.0938"/><ellipse cx="1637" cy="571.7422" fill="none" rx="3" ry="3" style="stroke:#038048;stroke-width:1;"/><text fill="#000000" font-family="sans-serif" font-size="14" lengthAdjust="spacing" textLength="87.8145" x="1646" y="575.0889">planId: UUID</text><ellipse cx="1637" cy="588.0391" fill="none" rx="3" ry="3" style="stroke:#038048;stroke-width:1;"/><text fill="#000000" font-family="sans-serif" font-size="14" lengthAdjust="spacing" textLength="122.4795" x="1646" y="591.3857">planName: String</text><ellipse cx="1637" cy="604.3359" fill="none" rx="3" ry="3" style="stroke:#038048;stroke-width:1;"/><text fill="#000000" font-family="sans-serif" font-size="14" lengthAdjust="spacing" textLength="182.6152" x="1646" y="607.6826">durationInMonths: Integer</text><ellipse cx="1637" cy="620.6328" fill="none" rx="3" ry="3" style="stroke:#038048;stroke-width:1;"/><text fill="#000000" font-family="sans-serif" font-size="14" lengthAdjust="spacing" textLength="123.4775" x="1646" y="623.9795">price: BigDecimal</text><line style="stroke:#181818;stroke-width:0.5;" x1="1627" x2="1833.6152" y1="631.2813" y2="631.2813"/></g><!--class Trainer--><g class="entity" data-entity="Trainer" data-source-line="30" data-uid="ent0007" id="entity_Trainer"><rect fill="#F1F1F1" height="123.7813" rx="2.5" ry="2.5" style="stroke:#181818;stroke-width:0.5;" width="139.832" x="1362.5" y="523.2969"/><text fill="#000000" font-family="sans-serif" font-size="14" lengthAdjust="spacing" textLength="50.0186" x="1407.4067" y="541.292">Trainer</text><line style="stroke:#181818;stroke-width:0.5;" x1="1363.5" x2="1501.332" y1="549.5938" y2="549.5938"/><ellipse cx="1373.5" cy="563.2422" fill="none" rx="3" ry="3" style="stroke:#038048;stroke-width:1;"/><text fill="#000000" font-family="sans-serif" font-size="14" lengthAdjust="spacing" textLength="104.542" x="1382.5" y="566.5889">trainerId: UUID</text><ellipse cx="1373.5" cy="579.5391" fill="none" rx="3" ry="3" style="stroke:#038048;stroke-width:1;"/><text fill="#000000" font-family="sans-serif" font-size="14" lengthAdjust="spacing" textLength="113.832" x="1382.5" y="582.8857">fullName: String</text><ellipse cx="1373.5" cy="595.8359" fill="none" rx="3" ry="3" style="stroke:#038048;stroke-width:1;"/><text fill="#000000" font-family="sans-serif" font-size="14" lengthAdjust="spacing" textLength="89.5576" x="1382.5" y="599.1826">email: String</text><ellipse cx="1373.5" cy="612.1328" fill="none" rx="3" ry="3" style="stroke:#038048;stroke-width:1;"/><text fill="#000000" font-family="sans-serif" font-size="14" lengthAdjust="spacing" textLength="113.5723" x="1382.5" y="615.4795">specialty: String</text><ellipse cx="1373.5" cy="628.4297" fill="none" rx="3" ry="3" style="stroke:#038048;stroke-width:1;"/><text fill="#000000" font-family="sans-serif" font-size="14" lengthAdjust="spacing" textLength="108.4111" x="1382.5" y="631.7764">active: Boolean</text><line style="stroke:#181818;stroke-width:0.5;" x1="1363.5" x2="1501.332" y1="639.0781" y2="639.0781"/></g><!--class TrainerCertification--><g class="entity" data-entity="TrainerCertification" data-source-line="38" data-uid="ent0008" id="entity_TrainerCertification"><rect fill="#F1F1F1" height="107.4844" rx="2.5" ry="2.5" style="stroke:#181818;stroke-width:0.5;" width="188.8936" x="1354" y="708.2969"/><text fill="#000000" font-family="sans-serif" font-size="14" lengthAdjust="spacing" textLength="135.4541" x="1380.7197" y="726.292">TrainerCertification</text><line style="stroke:#181818;stroke-width:0.5;" x1="1355" x2="1541.8936" y1="734.5938" y2="734.5938"/><ellipse cx="1365" cy="748.2422" fill="none" rx="3" ry="3" style="stroke:#038048;stroke-width:1;"/><text fill="#000000" font-family="sans-serif" font-size="14" lengthAdjust="spacing" textLength="140.9434" x="1374" y="751.5889">certificationId: UUID</text><ellipse cx="1365" cy="764.5391" fill="none" rx="3" ry="3" style="stroke:#038048;stroke-width:1;"/><text fill="#000000" font-family="sans-serif" font-size="14" lengthAdjust="spacing" textLength="162.8936" x="1374" y="767.8857">certificateName: String</text><ellipse cx="1365" cy="780.8359" fill="none" rx="3" ry="3" style="stroke:#038048;stroke-width:1;"/><text fill="#000000" font-family="sans-serif" font-size="14" lengthAdjust="spacing" textLength="157.4727" x="1374" y="784.1826">issuedDate: LocalDate</text><ellipse cx="1365" cy="797.1328" fill="none" rx="3" ry="3" style="stroke:#038048;stroke-width:1;"/><text fill="#000000" font-family="sans-serif" font-size="14" lengthAdjust="spacing" textLength="156.3379" x="1374" y="800.4795">expiryDate: LocalDate</text><line style="stroke:#181818;stroke-width:0.5;" x1="1355" x2="1541.8936" y1="807.7813" y2="807.7813"/></g><!--class Schedule--><g class="entity" data-entity="Schedule" data-source-line="49" data-uid="ent0011" id="entity_Schedule"><rect fill="#F1F1F1" height="172.6719" rx="2.5" ry="2.5" style="stroke:#181818;stroke-width:0.5;" width="207.1523" x="842" y="252.2969"/><text fill="#000000" font-family="sans-serif" font-size="14" lengthAdjust="spacing" textLength="64.333" x="913.4097" y="270.292">Schedule</text><line style="stroke:#181818;stroke-width:0.5;" x1="843" x2="1048.1523" y1="278.5938" y2="278.5938"/><ellipse cx="853" cy="292.2422" fill="none" rx="3" ry="3" style="stroke:#038048;stroke-width:1;"/><text fill="#000000" font-family="sans-serif" font-size="14" lengthAdjust="spacing" textLength="120.3262" x="862" y="295.5889">scheduleId: UUID</text><ellipse cx="853" cy="308.5391" fill="none" rx="3" ry="3" style="stroke:#038048;stroke-width:1;"/><text fill="#000000" font-family="sans-serif" font-size="14" lengthAdjust="spacing" textLength="127.0049" x="862" y="311.8857">className: String</text><ellipse cx="853" cy="324.8359" fill="none" rx="3" ry="3" style="stroke:#038048;stroke-width:1;"/><text fill="#000000" font-family="sans-serif" font-size="14" lengthAdjust="spacing" textLength="120.0391" x="862" y="328.1826">classType: String</text><ellipse cx="853" cy="341.1328" fill="none" rx="3" ry="3" style="stroke:#038048;stroke-width:1;"/><text fill="#000000" font-family="sans-serif" font-size="14" lengthAdjust="spacing" textLength="181.1523" x="862" y="344.4795">startTime: LocalDateTime</text><ellipse cx="853" cy="357.4297" fill="none" rx="3" ry="3" style="stroke:#038048;stroke-width:1;"/><text fill="#000000" font-family="sans-serif" font-size="14" lengthAdjust="spacing" textLength="174.918" x="862" y="360.7764">endTime: LocalDateTime</text><ellipse cx="853" cy="373.7266" fill="none" rx="3" ry="3" style="stroke:#038048;stroke-width:1;"/><text fill="#000000" font-family="sans-serif" font-size="14" lengthAdjust="spacing" textLength="104.542" x="862" y="377.0732">trainerId: UUID</text><ellipse cx="853" cy="390.0234" fill="none" rx="3" ry="3" style="stroke:#038048;stroke-width:1;"/><text fill="#000000" font-family="sans-serif" font-size="14" lengthAdjust="spacing" textLength="151.2109" x="862" y="393.3701">maxCapacity: Integer</text><ellipse cx="853" cy="406.3203" fill="none" rx="3" ry="3" style="stroke:#038048;stroke-width:1;"/><text fill="#000000" font-family="sans-serif" font-size="14" lengthAdjust="spacing" textLength="158.1904" x="862" y="409.667">enrolledCount: Integer</text><line style="stroke:#181818;stroke-width:0.5;" x1="843" x2="1048.1523" y1="416.9688" y2="416.9688"/></g><!--class Room--><g class="entity" data-entity="Room" data-source-line="60" data-uid="ent0012" id="entity_Room"><rect fill="#F1F1F1" height="91.1875" rx="2.5" ry="2.5" style="stroke:#181818;stroke-width:0.5;" width="183.2334" x="866" y="539.7969"/><text fill="#000000" font-family="sans-serif" font-size="14" lengthAdjust="spacing" textLength="40.4961" x="937.3687" y="557.792">Room</text><line style="stroke:#181818;stroke-width:0.5;" x1="867" x2="1048.2334" y1="566.0938" y2="566.0938"/><ellipse cx="877" cy="579.7422" fill="none" rx="3" ry="3" style="stroke:#038048;stroke-width:1;"/><text fill="#000000" font-family="sans-serif" font-size="14" lengthAdjust="spacing" textLength="94.1104" x="886" y="583.0889">roomId: UUID</text><ellipse cx="877" cy="596.0391" fill="none" rx="3" ry="3" style="stroke:#038048;stroke-width:1;"/><text fill="#000000" font-family="sans-serif" font-size="14" lengthAdjust="spacing" textLength="128.7754" x="886" y="599.3857">roomName: String</text><ellipse cx="877" cy="612.3359" fill="none" rx="3" ry="3" style="stroke:#038048;stroke-width:1;"/><text fill="#000000" font-family="sans-serif" font-size="14" lengthAdjust="spacing" textLength="157.2334" x="886" y="615.6826">roomCapacity: Integer</text><line style="stroke:#181818;stroke-width:0.5;" x1="867" x2="1048.2334" y1="622.9844" y2="622.9844"/></g><!--class ClassSession--><g class="entity" data-entity="ClassSession" data-source-line="66" data-uid="ent0013" id="entity_ClassSession"><rect fill="#F1F1F1" height="91.1875" rx="2.5" ry="2.5" style="stroke:#181818;stroke-width:0.5;" width="190.4453" x="640.5" y="539.7969"/><text fill="#000000" font-family="sans-serif" font-size="14" lengthAdjust="spacing" textLength="90.248" x="690.5986" y="557.792">ClassSession</text><line style="stroke:#181818;stroke-width:0.5;" x1="641.5" x2="829.9453" y1="566.0938" y2="566.0938"/><ellipse cx="651.5" cy="579.7422" fill="none" rx="3" ry="3" style="stroke:#038048;stroke-width:1;"/><text fill="#000000" font-family="sans-serif" font-size="14" lengthAdjust="spacing" textLength="145.7559" x="660.5" y="583.0889">classSessionId: UUID</text><ellipse cx="651.5" cy="596.0391" fill="none" rx="3" ry="3" style="stroke:#038048;stroke-width:1;"/><text fill="#000000" font-family="sans-serif" font-size="14" lengthAdjust="spacing" textLength="164.4453" x="660.5" y="599.3857">sessionDate: LocalDate</text><ellipse cx="651.5" cy="612.3359" fill="none" rx="3" ry="3" style="stroke:#038048;stroke-width:1;"/><text fill="#000000" font-family="sans-serif" font-size="14" lengthAdjust="spacing" textLength="147.3828" x="660.5" y="615.6826">sessionStatus: String</text><line style="stroke:#181818;stroke-width:0.5;" x1="641.5" x2="829.9453" y1="622.9844" y2="622.9844"/></g><!--class Enrollment--><g class="entity" data-entity="Enrollment" data-source-line="77" data-uid="ent0017" id="entity_Enrollment"><rect fill="#F1F1F1" height="74.8906" rx="2.5" ry="2.5" style="stroke:#181818;stroke-width:0.5;" width="159.7861" x="424.5" y="79.2969"/><text fill="#000000" font-family="sans-serif" font-size="14" lengthAdjust="spacing" textLength="76.4326" x="466.1768" y="97.292">Enrollment</text><line style="stroke:#181818;stroke-width:0.5;" x1="425.5" x2="583.2861" y1="105.5938" y2="105.5938"/><ellipse cx="435.5" cy="119.2422" fill="none" rx="3" ry="3" style="stroke:#038048;stroke-width:1;"/><text fill="#000000" font-family="sans-serif" font-size="14" lengthAdjust="spacing" textLength="133.7861" x="444.5" y="122.5889">enrollmentId: UUID</text><ellipse cx="435.5" cy="135.5391" fill="none" rx="3" ry="3" style="stroke:#038048;stroke-width:1;"/><text fill="#000000" font-family="sans-serif" font-size="14" lengthAdjust="spacing" textLength="116.7305" x="444.5" y="138.8857">memberId: UUID</text><line style="stroke:#181818;stroke-width:0.5;" x1="425.5" x2="583.2861" y1="146.1875" y2="146.1875"/></g><!--class EnrollmentItem--><g class="entity" data-entity="EnrollmentItem" data-source-line="82" data-uid="ent0018" id="entity_EnrollmentItem"><rect fill="#F1F1F1" height="156.375" rx="2.5" ry="2.5" style="stroke:#181818;stroke-width:0.5;" width="249.5146" x="334.5" y="260.7969"/><text fill="#000000" font-family="sans-serif" font-size="14" lengthAdjust="spacing" textLength="108.3018" x="405.1064" y="278.792">EnrollmentItem</text><line style="stroke:#181818;stroke-width:0.5;" x1="335.5" x2="583.0146" y1="287.0938" y2="287.0938"/><ellipse cx="345.5" cy="300.7422" fill="none" rx="3" ry="3" style="stroke:#038048;stroke-width:1;"/><text fill="#000000" font-family="sans-serif" font-size="14" lengthAdjust="spacing" textLength="138.667" x="354.5" y="304.0889">registrationId: UUID</text><ellipse cx="345.5" cy="317.0391" fill="none" rx="3" ry="3" style="stroke:#038048;stroke-width:1;"/><text fill="#000000" font-family="sans-serif" font-size="14" lengthAdjust="spacing" textLength="145.7559" x="354.5" y="320.3857">classSessionId: UUID</text><ellipse cx="345.5" cy="333.3359" fill="none" rx="3" ry="3" style="stroke:#038048;stroke-width:1;"/><text fill="#000000" font-family="sans-serif" font-size="14" lengthAdjust="spacing" textLength="223.5146" x="354.5" y="336.6826">enrollmentDate: LocalDateTime</text><ellipse cx="345.5" cy="349.6328" fill="none" rx="3" ry="3" style="stroke:#038048;stroke-width:1;"/><text fill="#000000" font-family="sans-serif" font-size="14" lengthAdjust="spacing" textLength="93.9668" x="354.5" y="352.9795">status: String</text><ellipse cx="345.5" cy="365.9297" fill="none" rx="3" ry="3" style="stroke:#038048;stroke-width:1;"/><text fill="#000000" font-family="sans-serif" font-size="14" lengthAdjust="spacing" textLength="104.542" x="354.5" y="369.2764">trainerId: UUID</text><ellipse cx="345.5" cy="382.2266" fill="none" rx="3" ry="3" style="stroke:#038048;stroke-width:1;"/><text fill="#000000" font-family="sans-serif" font-size="14" lengthAdjust="spacing" textLength="120.3262" x="354.5" y="385.5732">scheduleId: UUID</text><ellipse cx="345.5" cy="398.5234" fill="none" rx="3" ry="3" style="stroke:#038048;stroke-width:1;"/><text fill="#000000" font-family="sans-serif" font-size="14" lengthAdjust="spacing" textLength="145.7422" x="354.5" y="401.8701">seatNumber: Integer</text><line style="stroke:#181818;stroke-width:0.5;" x1="335.5" x2="583.0146" y1="409.1719" y2="409.1719"/></g><g class="entity" data-entity="GMN25" data-source-line="102" data-uid="ent0026" id="entity_GMN25"><path d="M6,303.2969 L6,373.8281 L298.9844,373.8281 L298.9844,313.2969 L288.9844,303.2969 L6,303.2969" fill="#FEFFDD" style="stroke:#181818;stroke-width:0.5;"/><path d="M288.9844,303.2969 L288.9844,313.2969 L298.9844,313.2969 L288.9844,303.2969" fill="#FEFFDD" style="stroke:#181818;stroke-width:1;"/><text fill="#000000" font-family="sans-serif" font-size="13" lengthAdjust="spacing" textLength="64.7651" x="12" y="320.3638">Invariants</text><text fill="#000000" font-family="sans-serif" font-size="13" lengthAdjust="spacing" textLength="257.8735" x="12" y="335.4966">- member must have valid membership</text><text fill="#000000" font-family="sans-serif" font-size="13" lengthAdjust="spacing" textLength="271.9844" x="12" y="350.6294">- no duplicate enrollment in same session</text><text fill="#000000" font-family="sans-serif" font-size="13" lengthAdjust="spacing" textLength="231.4292" x="12" y="365.7622">- session must have available seats</text></g><g class="entity" data-entity="GMN28" data-source-line="109" data-uid="ent0029" id="entity_GMN28"><path d="M1084,549.7969 L1084,620.3281 A0,0 0 0 0 1084,620.3281 L1320.6235,620.3281 A0,0 0 0 0 1320.6235,620.3281 L1320.6235,559.7969 L1310.6235,549.7969 L1169.94,549.7969 L1035.39,425.3069 L1161.94,549.7969 L1084,549.7969 A0,0 0 0 0 1084,549.7969" fill="#FEFFDD" style="stroke:#181818;stroke-width:0.5;"/><path d="M1310.6235,549.7969 L1310.6235,559.7969 L1320.6235,559.7969 L1310.6235,549.7969" fill="#FEFFDD" style="stroke:#181818;stroke-width:0.5;"/><text fill="#000000" font-family="sans-serif" font-size="13" lengthAdjust="spacing" textLength="64.7651" x="1090" y="566.8638">Invariants</text><text fill="#000000" font-family="sans-serif" font-size="13" lengthAdjust="spacing" textLength="215.6235" x="1090" y="581.9966">- enrolledCount &lt;= maxCapacity</text><text fill="#000000" font-family="sans-serif" font-size="13" lengthAdjust="spacing" textLength="147.1768" x="1090" y="597.1294">- endTime &gt; startTime</text><text fill="#000000" font-family="sans-serif" font-size="13" lengthAdjust="spacing" textLength="116.0161" x="1090" y="612.2622">- no room overlap</text></g><g class="entity" data-entity="GMN31" data-source-line="116" data-uid="ent0032" id="entity_GMN31"><path d="M1578,726.2969 L1578,796.8281 A0,0 0 0 0 1578,796.8281 L1784.5293,796.8281 A0,0 0 0 0 1784.5293,796.8281 L1784.5293,736.2969 L1774.5293,726.2969 L1636.1,726.2969 L1502.52,635.3669 L1628.1,726.2969 L1578,726.2969 A0,0 0 0 0 1578,726.2969" fill="#FEFFDD" style="stroke:#181818;stroke-width:0.5;"/><path d="M1774.5293,726.2969 L1774.5293,736.2969 L1784.5293,736.2969 L1774.5293,726.2969" fill="#FEFFDD" style="stroke:#181818;stroke-width:0.5;"/><text fill="#000000" font-family="sans-serif" font-size="13" lengthAdjust="spacing" textLength="64.7651" x="1584" y="743.3638">Invariants</text><text fill="#000000" font-family="sans-serif" font-size="13" lengthAdjust="spacing" textLength="153.3594" x="1584" y="758.4966">- trainer must be active</text><text fill="#000000" font-family="sans-serif" font-size="13" lengthAdjust="spacing" textLength="165.3501" x="1584" y="773.6294">- no overlapping sessions</text><text fill="#000000" font-family="sans-serif" font-size="13" lengthAdjust="spacing" textLength="185.5293" x="1584" y="788.7622">- specialty must match class</text></g><!--link Member to MembershipPlan--><g class="link" data-entity-1="Member" data-entity-2="MembershipPlan" data-source-line="26" data-uid="lnk5" id="link_Member_MembershipPlan"><path codeLine="26" d="M1730.5,425.3069 C1730.5,460.7069 1730.5,494.6169 1730.5,525.6069" fill="none" id="Member-to-MembershipPlan" style="stroke:#181818;stroke-width:1;"/><polygon fill="#181818" points="1730.5,531.6069,1734.5,522.6069,1730.5,526.6069,1726.5,522.6069,1730.5,531.6069" style="stroke:#181818;stroke-width:1;"/><text fill="#000000" font-family="sans-serif" font-size="13" lengthAdjust="spacing" textLength="29.7832" x="1731.5" y="468.3638">uses</text></g><!--reverse link Trainer to TrainerCertification--><g class="link" data-entity-1="Trainer" data-entity-2="TrainerCertification" data-source-line="45" data-uid="lnk9" id="link_Trainer_TrainerCertification"><path codeLine="45" d="M1439.1957,659.2768 C1441.0157,679.1268 1441.92,689.0269 1443.68,708.2169" fill="none" id="Trainer-backto-TrainerCertification" style="stroke:#181818;stroke-width:1;"/><polygon fill="#181818" points="1438.1,647.3269,1434.6645,653.667,1439.1957,659.2768,1442.6311,652.9366,1438.1,647.3269" style="stroke:#181818;stroke-width:1;"/></g><!--reverse link Schedule to Room--><g class="link" data-entity-1="Schedule" data-entity-2="Room" data-source-line="72" data-uid="lnk14" id="link_Schedule_Room"><path codeLine="72" d="M950.2875,437.2925 C952.1775,475.8525 953.75,507.8069 955.31,539.6969" fill="none" id="Schedule-backto-Room" style="stroke:#181818;stroke-width:1;"/><polygon fill="#181818" points="949.7,425.3069,945.9985,431.4955,950.2875,437.2925,953.9889,431.1039,949.7,425.3069" style="stroke:#181818;stroke-width:1;"/></g><!--reverse link Schedule to ClassSession--><g class="link" data-entity-1="Schedule" data-entity-2="ClassSession" data-source-line="73" data-uid="lnk15" id="link_Schedule_ClassSession"><path codeLine="73" d="M864.2312,434.41 C831.1112,472.97 801.2,507.8069 773.8,539.6969" fill="none" id="Schedule-backto-ClassSession" style="stroke:#181818;stroke-width:1;"/><polygon fill="#181818" points="872.05,425.3069,865.1062,427.2521,864.2312,434.41,871.1749,432.4647,872.05,425.3069" style="stroke:#181818;stroke-width:1;"/></g><!--reverse link Enrollment to EnrollmentItem--><g class="link" data-entity-1="Enrollment" data-entity-2="EnrollmentItem" data-source-line="92" data-uid="lnk19" id="link_Enrollment_EnrollmentItem"><path codeLine="92" d="M494.5634,166.3731 C488.6534,195.2431 482.64,224.6569 475.28,260.6669" fill="none" id="Enrollment-backto-EnrollmentItem" style="stroke:#181818;stroke-width:1;"/><polygon fill="#181818" points="496.97,154.6169,491.848,159.6928,494.5634,166.3731,499.6854,161.2972,496.97,154.6169" style="stroke:#181818;stroke-width:1;"/></g><!--link Enrollment to Member--><g class="link" data-entity-1="Enrollment" data-entity-2="Member" data-source-line="95" data-uid="lnk20" id="link_Enrollment_Member"><path codeLine="95" d="M584.8,119.0969 C782.16,122.9969 1286.59,137.3769 1447.5,184.2969 C1500.22,199.6669 1548.9451,222.8796 1595.3951,249.3096" fill="none" id="Enrollment-to-Member" style="stroke:#181818;stroke-width:1;stroke-dasharray:7,7;"/><polygon fill="#181818" points="1600.61,252.2769,1594.7658,244.3494,1596.2642,249.8041,1590.8095,251.3026,1600.61,252.2769" style="stroke:#181818;stroke-width:1;"/><text fill="#000000" font-family="sans-serif" font-size="13" lengthAdjust="spacing" textLength="58.9697" x="1489.5" y="197.3638">validates</text></g><!--link Enrollment to Trainer--><g class="link" data-entity-1="Enrollment" data-entity-2="Trainer" data-source-line="96" data-uid="lnk21" id="link_Enrollment_Trainer"><path codeLine="96" d="M584.57,118.7169 C696.6,122.6569 904.47,139.7369 1065.5,209.2969 C1230.5,280.5769 1280.65,310.0269 1386.5,455.2969 C1401.06,475.2869 1409.5936,494.5921 1416.7136,517.2821" fill="none" id="Enrollment-to-Trainer" style="stroke:#181818;stroke-width:1;stroke-dasharray:7,7;"/><polygon fill="#181818" points="1418.51,523.0069,1419.6319,513.2221,1417.013,518.2362,1411.9989,515.6173,1418.51,523.0069" style="stroke:#181818;stroke-width:1;"/><text fill="#000000" font-family="sans-serif" font-size="13" lengthAdjust="spacing" textLength="44.8335" x="1373.5" y="343.3638">checks</text></g><!--link Enrollment to Schedule--><g class="link" data-entity-1="Enrollment" data-entity-2="Schedule" data-source-line="97" data-uid="lnk22" id="link_Enrollment_Schedule"><path codeLine="97" d="M577.82,154.3769 C649.95,190.3569 755.3811,242.9484 836.5011,283.4184" fill="none" id="Enrollment-to-Schedule" style="stroke:#181818;stroke-width:1;stroke-dasharray:7,7;"/><polygon fill="#181818" points="841.87,286.0969,835.6023,278.4998,837.3959,283.8648,832.0309,285.6584,841.87,286.0969" style="stroke:#181818;stroke-width:1;"/><text fill="#000000" font-family="sans-serif" font-size="13" lengthAdjust="spacing" textLength="76.3369" x="660.5" y="197.3638">coordinates</text></g><!--link EnrollmentItem to ClassSession--><g class="link" data-entity-1="EnrollmentItem" data-entity-2="ClassSession" data-source-line="98" data-uid="lnk23" id="link_EnrollmentItem_ClassSession"><path codeLine="98" d="M546.45,416.8269 C592.11,457.2769 641.9691,501.438 680.6491,535.708" fill="none" id="EnrollmentItem-to-ClassSession" style="stroke:#181818;stroke-width:1;stroke-dasharray:7,7;"/><polygon fill="#181818" points="685.14,539.6869,681.0562,530.7246,681.3976,536.3711,675.751,536.7125,685.14,539.6869" style="stroke:#181818;stroke-width:1;"/><text fill="#000000" font-family="sans-serif" font-size="13" lengthAdjust="spacing" textLength="69.418" x="606.5" y="468.3638">references</text></g><!--link Schedule to Trainer--><g class="link" data-entity-1="Schedule" data-entity-2="Trainer" data-source-line="99" data-uid="lnk24" id="link_Schedule_Trainer"><path codeLine="99" d="M1049.15,361.9869 C1132.34,383.1569 1249.52,420.7669 1338.5,480.2969 C1356,492.0069 1368.3859,503.2074 1382.4459,518.8274" fill="none" id="Schedule-to-Trainer" style="stroke:#181818;stroke-width:1;stroke-dasharray:7,7;"/><polygon fill="#181818" points="1386.46,523.2869,1383.4118,513.9216,1383.1149,519.5706,1377.4659,519.2737,1386.46,523.2869" style="stroke:#181818;stroke-width:1;"/><text fill="#000000" font-family="sans-serif" font-size="13" lengthAdjust="spacing" textLength="57.8652" x="1320.5" y="468.3638">assigned</text></g><!--link Enrollment to GMN25--><g class="link" data-entity-1="Enrollment" data-entity-2="GMN25" data-source-line="102" data-uid="lnk27" id="link_Enrollment_GMN25"><path d="M424.32,152.8969 C390.79,168.6769 351.93,188.4369 318.5,209.2969 C273.05,237.6669 225.06,275.8169 192.44,303.1769" fill="none" id="Enrollment-GMN25" style="stroke:#181818;stroke-width:1;stroke-dasharray:7,7;"/></g><!--SRC=[dLR1Rjim3BtxAuWUDsGV46mzD2c606ixB2rsPcp65YfBXYHx3Oh- -oXRJYJRsM6NmA8eyZq-YeeJJX9yFzNmcmwMJ2ToWgskKIZO2YmDrbbMYO8W5oQNbDbNeHfaCpIOls99UtVY28PoXwfC76o5XVuZL0b7b9QoB9o0cmUg3sJW0HKlQrBk1jupW5oYjH0slG7WSzslTiKQNbvssy5sRALyn9hMi7U6umzMOj0oDJMLLXEl0Xqz7U-4STKQVkWSvPOjSIvRYMRlqBKsFPdi6kUF_IF2lIhc7X_PXANt_2bHZMmR_awvUikSQz4QT4AhdNhGobMCTASSbMJ28SCohk5Eb5lAHOrop1rgkrhTJW6ieRLaiuz8fMV3NN1Lfd4t87V3yZ-5iWtZHEbEgHbp9pfFH6j9gD8A1W0RCauSHTxNOqIJnyOKqsMBvj24jIqLYzBIMoFCwOgcOp4-hLQBk9AwxlEAYfOlpN9Xpzk1Ymth2GtlEoVGcvzFpSHiVSS-Yph6xfU1cYgkxYtgMkFR1fcFy88bdKVAQ2cfsEXMkNWl4kwNrlL8pl1t6jjRvhoyTIbb57RZV_TaRTm7aIrDOmVZejHXRpO4-cHdURpMdihK5kD8TB_lQ-FbXYV39wmRBd4iVkJp7bVKMoOQJ0TZL8fBb9sZIwsf56FEXMPQBDCb-wHIbmwn2xDoiMkM6zaIkiVMSvdf6XN35pPbvKiRENpvCeuq7cKTIk47lPrwZFTq3OmbVvtjduLa1wrD8TGaIbzFxvbqsvhVloCPKZaxdsEa2TbTb8gAB5FQ4HoqStmDz36YnPHtgaCZK3dBYnKC8aFTMWSLTZGmWyipqtif3KNRo7wcmKKnu3VSyas2qC-zR_YEGcB7unWFqliXv-Lf01xY3EX8R0upkVNmzHj40o8uz1C6Rk4yYKRa_cQ3xiX8RAxd3dMSfmwTDl0vC9l-oHY3XxYD_nCIc0_7pW_ESB16brV3vJbZ-0i0]--></g></svg>